<svg width="240" height="205" viewBox="0 0 240 205" fill="none" xmlns="http://www.w3.org/2000/svg">
  <g stroke="black" stroke-linecap="round" stroke-linejoin="round">
    <path d="M120 57 L120 73" stroke-width="3"/>
    <path d="M88 69 L99 80" stroke-width="3"/>
    <path d="M152 69 L141 80" stroke-width="3"/>
    <path d="M84 135 L97 124" stroke-width="3"/>
    <path d="M156 135 L143 124" stroke-width="3"/>
    <path d="M120 149 L120 133" stroke-width="3"/>

    <circle cx="120" cy="45" r="5.5" stroke-width="2.5"/>
    <circle cx="66" cy="72" r="5.5" stroke-width="2.5"/>
    <circle cx="174" cy="72" r="5.5" stroke-width="2.5"/>
    <circle cx="62" cy="137" r="5.5" stroke-width="2.5"/>
    <circle cx="178" cy="137" r="5.5" stroke-width="2.5"/>
    <circle cx="120" cy="167" r="5.5" stroke-width="2.5"/>

    <circle cx="120" cy="104" r="33" stroke-width="4"/>

    <circle cx="120" cy="104" r="2.5" fill="black" stroke="none"/>

    <path d="M120 77 L120 131" stroke-width="2.2"/>
    <path d="M93 104 L147 104" stroke-width="2.2"/>
    <path d="M101 85 L139 123" stroke-width="2.2"/>
    <path d="M139 85 L101 123" stroke-width="2.2"/>
    <path d="M111 80 L129 128" stroke-width="2.2"/>
    <path d="M129 80 L111 128" stroke-width="2.2"/>
  </g>
</svg>
