<svg xmlns="http://www.w3.org/2000/svg" viewBox="0 0 64 64">
  <g fill="none" stroke="black" stroke-linecap="round" stroke-linejoin="round">

    <!-- outer ring -->
    <circle cx="32" cy="32" r="16" stroke-width="4"/>

    <!-- 6 spokes -->
    <path d="M32 6 L32 14" stroke-width="3.5"/>
    <path d="M52 16 L46 22" stroke-width="3.5"/>
    <path d="M52 48 L46 42" stroke-width="3.5"/>
    <path d="M32 58 L32 50" stroke-width="3.5"/>
    <path d="M12 48 L18 42" stroke-width="3.5"/>
    <path d="M12 16 L18 22" stroke-width="3.5"/>

    <!-- 6 outer nodes -->
    <circle cx="32" cy="6" r="3.2" stroke-width="3"/>
    <circle cx="52" cy="16" r="3.2" stroke-width="3"/>
    <circle cx="52" cy="48" r="3.2" stroke-width="3"/>
    <circle cx="32" cy="58" r="3.2" stroke-width="3"/>
    <circle cx="12" cy="48" r="3.2" stroke-width="3"/>
    <circle cx="12" cy="16" r="3.2" stroke-width="3"/>

    <!-- simplified inner star -->
    <path d="M32 22 L32 42" stroke-width="3"/>
    <path d="M22 32 L42 32" stroke-width="3"/>
    <path d="M25 25 L39 39" stroke-width="3"/>
    <path d="M39 25 L25 39" stroke-width="3"/>

  </g>
</svg>
